<?xml version="1.0" standalone="no"?>
<!DOCTYPE svg PUBLIC "-//W3C//DTD SVG 20010904//EN"
 "http://www.w3.org/TR/2001/REC-SVG-20010904/DTD/svg10.dtd">
<svg version="1.0" xmlns="http://www.w3.org/2000/svg"
 width="700.000000pt" height="700.000000pt" viewBox="0 0 700.000000 700.000000"
 preserveAspectRatio="xMidYMid meet">
<metadata>
Created by potrace 1.11, written by Peter Selinger 2001-2013
</metadata>
<g transform="translate(0.000000,700.000000) scale(0.100000,-0.100000)"
fill="#000000" stroke="none">
<path d="M1060 5810 c-142 -56 -211 -206 -167 -365 14 -49 138 -179 825 -867
l786 -787 -772 -773 c-424 -425 -782 -786 -795 -801 -48 -58 -71 -163 -52
-237 38 -145 153 -233 296 -226 119 6 85 -24 1067 958 985 984 954 950 955
1065 1 71 -5 98 -33 152 -14 28 -326 347 -924 945 -702 702 -913 908 -952 927
-63 31 -168 35 -234 9z"/>
<path d="M3407 1733 c-79 -26 -159 -109 -186 -193 -3 -8 -5 -46 -5 -85 0 -144
85 -248 229 -279 35 -8 407 -11 1235 -11 1360 1 1259 -5 1355 91 143 142 102
375 -81 465 l-49 24 -1225 2 c-1103 2 -1230 0 -1273 -14z"/>
</g>
</svg>
